<?xml version="1.0" encoding="UTF-8" standalone="no"?>
<!-- Created with Inkscape (http://www.inkscape.org/) -->

<svg
   width="257.15625mm"
   height="135.05151mm"
   viewBox="0 0 257.15626 135.05151"
   version="1.1"
   id="svg274"
   inkscape:version="1.2.2 (1:1.2.2+202212051550+b0a8486541)"
   sodipodi:docname="cartel.svg"
   xml:space="preserve"
   xmlns:inkscape="http://www.inkscape.org/namespaces/inkscape"
   xmlns:sodipodi="http://sodipodi.sourceforge.net/DTD/sodipodi-0.dtd"
   xmlns:xlink="http://www.w3.org/1999/xlink"
   xmlns="http://www.w3.org/2000/svg"
   xmlns:svg="http://www.w3.org/2000/svg"><sodipodi:namedview
     id="namedview276"
     pagecolor="#ffffff"
     bordercolor="#999999"
     borderopacity="1"
     inkscape:showpageshadow="0"
     inkscape:pageopacity="0"
     inkscape:pagecheckerboard="0"
     inkscape:deskcolor="#d1d1d1"
     inkscape:document-units="mm"
     showgrid="false"
     inkscape:zoom="1.0551034"
     inkscape:cx="508.48098"
     inkscape:cy="181.97269"
     inkscape:window-width="1920"
     inkscape:window-height="1002"
     inkscape:window-x="0"
     inkscape:window-y="0"
     inkscape:window-maximized="1"
     inkscape:current-layer="layer1"
     showguides="false" /><defs
     id="defs271"><linearGradient
       inkscape:collect="always"
       id="linearGradient8756"><stop
         style="stop-color:#8b4513;stop-opacity:1;"
         offset="0"
         id="stop8752" /><stop
         style="stop-color:#8b4513;stop-opacity:0;"
         offset="1"
         id="stop8754" /></linearGradient><linearGradient
       inkscape:collect="always"
       id="linearGradient8734"><stop
         style="stop-color:#9f4513;stop-opacity:1;"
         offset="0"
         id="stop8730" /><stop
         style="stop-color:#9f4513;stop-opacity:0;"
         offset="1"
         id="stop8732" /></linearGradient><linearGradient
       inkscape:collect="always"
       id="linearGradient8714"><stop
         style="stop-color:#9f4513;stop-opacity:1;"
         offset="0"
         id="stop8710" /><stop
         style="stop-color:#9f4513;stop-opacity:0;"
         offset="1"
         id="stop8712" /></linearGradient><linearGradient
       inkscape:collect="always"
       id="linearGradient8706"><stop
         style="stop-color:#9f4513;stop-opacity:1;"
         offset="0"
         id="stop8702" /><stop
         style="stop-color:#9f4513;stop-opacity:0;"
         offset="1"
         id="stop8704" /></linearGradient><linearGradient
       inkscape:collect="always"
       id="linearGradient8698"><stop
         style="stop-color:#8b4513;stop-opacity:1;"
         offset="0"
         id="stop8694" /><stop
         style="stop-color:#8b4513;stop-opacity:0;"
         offset="1"
         id="stop8696" /></linearGradient><linearGradient
       inkscape:collect="always"
       id="linearGradient8676"><stop
         style="stop-color:#9f4513;stop-opacity:1;"
         offset="0"
         id="stop8672" /><stop
         style="stop-color:#9f4513;stop-opacity:0;"
         offset="1"
         id="stop8674" /></linearGradient><linearGradient
       inkscape:collect="always"
       id="linearGradient8660"><stop
         style="stop-color:#8b4513;stop-opacity:1;"
         offset="0"
         id="stop8656" /><stop
         style="stop-color:#8b4513;stop-opacity:0;"
         offset="1"
         id="stop8658" /></linearGradient><linearGradient
       inkscape:collect="always"
       id="linearGradient8652"><stop
         style="stop-color:#8b4513;stop-opacity:1;"
         offset="0"
         id="stop8648" /><stop
         style="stop-color:#8b4513;stop-opacity:0;"
         offset="1"
         id="stop8650" /></linearGradient><linearGradient
       inkscape:collect="always"
       id="linearGradient8644"><stop
         style="stop-color:#8b4513;stop-opacity:1;"
         offset="0"
         id="stop8640" /><stop
         style="stop-color:#8b4513;stop-opacity:0;"
         offset="1"
         id="stop8642" /></linearGradient><linearGradient
       inkscape:collect="always"
       id="linearGradient8628"><stop
         style="stop-color:#8b4513;stop-opacity:1;"
         offset="0"
         id="stop8624" /><stop
         style="stop-color:#8b4513;stop-opacity:0;"
         offset="1"
         id="stop8626" /></linearGradient><linearGradient
       inkscape:collect="always"
       id="linearGradient8618"><stop
         style="stop-color:#9f4513;stop-opacity:1;"
         offset="0"
         id="stop8614" /><stop
         style="stop-color:#9f4513;stop-opacity:0;"
         offset="1"
         id="stop8616" /></linearGradient><linearGradient
       id="linearGradient8596"
       inkscape:swatch="solid"><stop
         style="stop-color:#9f4513;stop-opacity:1;"
         offset="0"
         id="stop8594" /></linearGradient><linearGradient
       inkscape:collect="always"
       id="linearGradient1154"><stop
         style="stop-color:#ffd42a;stop-opacity:1;"
         offset="0"
         id="stop1150" /><stop
         style="stop-color:#ffd42a;stop-opacity:0;"
         offset="1"
         id="stop1152" /></linearGradient><linearGradient
       inkscape:collect="always"
       xlink:href="#linearGradient1154"
       id="linearGradient1156"
       x1="117.25665"
       y1="231.4706"
       x2="136.18027"
       y2="32.200005"
       gradientUnits="userSpaceOnUse" /><linearGradient
       inkscape:collect="always"
       xlink:href="#linearGradient8618"
       id="linearGradient8622"
       x1="12.348078"
       y1="192.41032"
       x2="204.35796"
       y2="192.41032"
       gradientUnits="userSpaceOnUse" /><linearGradient
       inkscape:collect="always"
       xlink:href="#linearGradient8628"
       id="linearGradient8630"
       x1="190.00114"
       y1="193.94183"
       x2="368.26721"
       y2="193.94183"
       gradientUnits="userSpaceOnUse" /><linearGradient
       inkscape:collect="always"
       xlink:href="#linearGradient8644"
       id="linearGradient8646"
       x1="404.39679"
       y1="189.42793"
       x2="593.44574"
       y2="189.42793"
       gradientUnits="userSpaceOnUse" /><linearGradient
       inkscape:collect="always"
       xlink:href="#linearGradient8652"
       id="linearGradient8654"
       x1="608.1391"
       y1="179.20465"
       x2="734.66095"
       y2="179.20465"
       gradientUnits="userSpaceOnUse" /><linearGradient
       inkscape:collect="always"
       xlink:href="#linearGradient8660"
       id="linearGradient8662"
       x1="761.08069"
       y1="182.88812"
       x2="949.49725"
       y2="182.88812"
       gradientUnits="userSpaceOnUse" /><radialGradient
       inkscape:collect="always"
       xlink:href="#linearGradient8698"
       id="radialGradient8700"
       cx="877.63409"
       cy="332.19397"
       fx="877.63409"
       fy="332.19397"
       r="29.487942"
       gradientTransform="matrix(1,0,0,1.1766649,0,-58.687012)"
       gradientUnits="userSpaceOnUse" /><radialGradient
       inkscape:collect="always"
       xlink:href="#linearGradient8706"
       id="radialGradient8708"
       cx="519.98364"
       cy="338.33563"
       fx="519.98364"
       fy="338.33563"
       r="31.502581"
       gradientTransform="matrix(1,0,0,1.0840351,0,-28.432055)"
       gradientUnits="userSpaceOnUse" /><linearGradient
       inkscape:collect="always"
       xlink:href="#linearGradient8734"
       id="linearGradient8736"
       x1="292.27649"
       y1="28.569582"
       x2="342.86691"
       y2="28.569582"
       gradientUnits="userSpaceOnUse" /><radialGradient
       inkscape:collect="always"
       xlink:href="#linearGradient8756"
       id="radialGradient8760"
       cx="358.60373"
       cy="27.970968"
       fx="358.60373"
       fy="27.970968"
       r="25.318714"
       gradientTransform="matrix(1,0,0,1.1085597,0,-3.0365189)"
       gradientUnits="userSpaceOnUse" /><linearGradient
       inkscape:collect="always"
       xlink:href="#linearGradient8714"
       id="linearGradient8762"
       x1="453.83075"
       y1="334.0976"
       x2="502.74832"
       y2="334.0976"
       gradientUnits="userSpaceOnUse" /><linearGradient
       inkscape:collect="always"
       xlink:href="#linearGradient8676"
       id="linearGradient8764"
       x1="809.63049"
       y1="332.19531"
       x2="865.14374"
       y2="332.19531"
       gradientUnits="userSpaceOnUse" /></defs><g
     inkscape:label="Layer 1"
     inkscape:groupmode="layer"
     id="layer1"
     transform="translate(55.12823)"><path
       style="fill:none;stroke:#000000;stroke-width:1.2169px;stroke-linecap:butt;stroke-linejoin:miter;stroke-opacity:1"
       d="M 22.450014,85.487007 C 8.891992,83.10479 5.6845345,80.416797 3.8675375,72.784908 2.0505595,65.153015 4.4106965,60.029366 4.4106965,60.029366 L -2.2101292,59.048364 -1.4460446,52.154538 8.0676545,53.07125 29.555084,27.650696 31.676156,17.023719 c 1.957543,-0.398928 5.178651,3.035879 6.232034,4.519207 1.744647,4.551965 0.80746,3.562281 1.13771,5.037854 l -0.270892,48.099714 c -3.012747,1.010615 -5.719003,0.502311 -7.712813,-3.536768 l -0.971462,-11.849039 -18.057516,0.195816 -0.567325,9.555136 1.367804,4.64235 c 1.606588,1.647192 2.742122,3.599146 4.725477,4.523178 3.139656,1.438248 5.77526,2.26484 8.098747,2.634726 0.476824,2.040398 -0.58214,3.843522 -3.207906,4.641114 z"
       id="path694"
       sodipodi:nodetypes="ccccccccccccccccccc" /><path
       style="fill:none;stroke:#000000;stroke-width:1.2169px;stroke-linecap:butt;stroke-linejoin:miter;stroke-opacity:1"
       d="M 17.325699,52.347747 29.28445,37.819301 c 2.60875,-3.341141 3.365291,15.034986 1.314052,14.815234 l -4.630425,-0.101147 z"
       id="path696"
       sodipodi:nodetypes="ccscc" /><path
       style="fill:none;stroke:#000000;stroke-width:1.23374px;stroke-linecap:butt;stroke-linejoin:miter;stroke-opacity:1"
       d="m -32.790302,26.553443 c -18.691454,27.538505 -16.298394,36.167258 -16.298394,36.167258 0.290386,6.23749 1.032027,8.851312 1.803528,11.225343 1.541634,2.589299 2.954405,5.312161 5.383169,6.981987 3.268171,1.955578 6.525437,3.127082 9.770101,3.39246 0,0 11.65026,0.02938 13.389384,-0.505712 5.253494,-1.616393 11.0165872,-7.064913 10.7654052,-7.787774 0.934325,-1.53668 1.916648,-3.265759 2.604959,-5.875704 0.0018,0.35347 -0.144524,0.768711 0.03777,0.0049 0.551696,-2.311743 1.800535,-9.319751 0.680117,-12.453581 0,0 -0.533628,-4.543557 -3.597174,-10.671642 -3.0635282,-6.12809 -13.6681002,-20.427255 -13.6681002,-20.427255 0,0 1.683325,-1.36813 3.233644,-1.760981 3.209327,-2.32021 1.043822,-5.167323 1.043822,-5.167323 l -9.43338,1.668324 c 0,0 -10.480799,-5.898984 -11.115016,-2.776136 l -0.205101,2.439422 z"
       id="path698"
       sodipodi:nodetypes="cccccsccsccccccccc" /><path
       style="fill:none;stroke:#000000;stroke-width:1.14797px;stroke-linecap:butt;stroke-linejoin:miter;stroke-opacity:1"
       d="m -26.766866,31.215625 c -10.489582,12.971726 -12.665479,28.315573 -12.665479,28.315573 0,0 -1.13295,4.53662 -3.6e-5,7.867538 1.132845,3.330917 1.976183,3.460036 4.406919,5.415702 2.430748,1.955671 6.250902,2.399702 6.250902,2.399702 l 5.573582,0.238558 c 1.636636,-0.459734 3.148215,-0.539114 4.99878,-1.64951 1.624416,-1.583864 2.799746,-2.372326 3.827201,-3.597621 l 1.189229,-3.430087 c 0,0 0.39119,-1.405582 -0.106235,-9.85161 -0.479719,-2.461773 -1.207275,-5.122545 -2.873081,-8.536674 -2.766601,-5.911429 -6.872535,-11.49546 -10.601782,-17.171571 z"
       id="path700"
       sodipodi:nodetypes="cccscccccccc" /><path
       style="fill:none;stroke:#000000;stroke-width:1.22241px;stroke-linecap:butt;stroke-linejoin:miter;stroke-opacity:1"
       d="m 91.033893,32.133504 c -0.944075,-10.644537 -9.94053,-12.572261 -9.94053,-12.572261 0.01384,-0.385648 -4.603215,-1.230243 -8.304448,-0.673264 -5.288191,0.795793 -9.241116,5.030668 -10.207776,6.762939 0,0 -2.204871,3.370923 -1.685521,6.479904 0.519347,3.108986 4.128498,8.301419 4.128498,8.301419 l 7.62392,5.887987 c 0,0 2.372887,1.995297 6.569081,4.834803 4.196195,2.839507 8.934406,8.898787 8.934406,8.898787 0,0 0.981408,2.293911 0.826992,4.013734 -0.15428,1.71982 -2.905918,6.587479 -2.905918,6.587479 -0.912179,1.794029 -3.126079,2.286356 -5.440388,2.678276 -3.251284,0.353745 -6.855188,1.361799 -11.252045,-0.611177 0,0 -2.826576,-0.926916 -4.870836,-2.982757 -2.044214,-2.055828 -1.75601,-8.36479 -1.75601,-8.36479 1.190478,-2.088705 3.21487,-3.962316 3.171509,-4.55736 1.52434,-2.759503 -0.334162,-6.85751 -4.299764,-5.778728 -3.629903,0.98746 -5.898938,5.796045 -5.898938,5.796045 -0.971831,2.421087 -1.25952,5.643241 -0.532723,10.053261 0,0 0.453255,5.245945 2.901061,7.382104 1.441537,1.889152 5.01964,5.570082 8.485415,6.420972 0,0 0.155048,-0.168661 0.239636,0.174008 4.540269,1.326638 17.955166,-0.06014 17.955166,-0.06014 0,0 3.786161,-0.548347 6.672256,-2.433806 2.233034,-1.458821 6.715585,-8.193666 6.502207,-9.473221 1.330106,-3.69718 0.777802,-7.297977 -0.514821,-10.860867 l -5.314684,-6.55577 -7.298356,-4.977601 c 0,0 -1.70758,-0.490869 -7.133726,-4.577461 l -5.426102,-4.086588 c 0,0 -2.455298,-2.427353 -2.807199,-4.74336 0.184591,-1.662436 0.128611,-6.18472 6.180871,-5.693494 6.052213,0.491222 9.230616,8.955 9.230616,8.955 0,0 2.6727,4.166121 6.168288,-4.224075 z"
       id="path702"
       sodipodi:nodetypes="ccscsccscccccsccsccccccsccccsccsccc" /><path
       style="fill:none;stroke:#000000;stroke-width:1.22241px;stroke-linecap:butt;stroke-linejoin:miter;stroke-opacity:1"
       d="m 67.352238,89.700758 4.273991,-5.104354 3.88545,5.145065 -3.999726,4.926844 z"
       id="path704"
       sodipodi:nodetypes="ccccc" /><path
       style="fill:none;stroke:#000000;stroke-width:1.22241px;stroke-linecap:butt;stroke-linejoin:miter;stroke-opacity:1"
       d="m 78.193651,89.457497 4.273991,-5.104354 3.88545,5.145065 -3.999726,4.926844 z"
       id="path704-6"
       sodipodi:nodetypes="ccccc" /><path
       style="fill:none;stroke:#000000;stroke-width:1.22241px;stroke-linecap:butt;stroke-linejoin:miter;stroke-opacity:1"
       d="m 24.684218,7.6144985 4.273991,-5.104354 3.88545,5.145065 -3.999726,4.9268445 z"
       id="path704-2"
       sodipodi:nodetypes="ccccc" /><path
       style="fill:none;stroke:#000000;stroke-width:1.22241px;stroke-linecap:butt;stroke-linejoin:miter;stroke-opacity:1"
       d="m 35.525631,7.3712385 4.273991,-5.104354 3.88545,5.145065 -3.999726,4.9268445 z"
       id="path704-6-9"
       sodipodi:nodetypes="ccccc" /><path
       style="fill:none;stroke:#000000;stroke-width:1.22241px;stroke-linecap:butt;stroke-linejoin:miter;stroke-opacity:1"
       d="m 185.26314,30.419498 c -0.94408,-10.644537 -9.94053,-12.572261 -9.94053,-12.572261 0.0138,-0.385648 -4.60322,-1.230243 -8.30445,-0.673264 -5.28819,0.795793 -9.24112,5.030668 -10.20778,6.762939 0,0 -2.20487,3.370923 -1.68552,6.479904 0.51935,3.108986 4.1285,8.301419 4.1285,8.301419 l 7.62392,5.887987 c 0,0 2.37289,1.995297 6.56908,4.834803 4.1962,2.839503 8.93441,8.898783 8.93441,8.898783 0,0 0.9814,2.29392 0.82699,4.01374 -0.15428,1.71982 -2.90592,6.58748 -2.90592,6.58748 -0.91218,1.79403 -3.12608,2.28635 -5.44039,2.67827 -3.25128,0.35375 -6.85519,1.3618 -11.25204,-0.61117 0,0 -2.82658,-0.92692 -4.87084,-2.98276 -2.04421,-2.05583 -1.75601,-8.36479 -1.75601,-8.36479 1.19048,-2.08871 3.21487,-3.96232 3.17151,-4.55736 1.52434,-2.7595 -0.33416,-6.857511 -4.29976,-5.778729 -3.62991,0.987459 -5.89894,5.796049 -5.89894,5.796049 -0.97183,2.42108 -1.25952,5.64324 -0.53273,10.05326 0,0 0.45326,5.24594 2.90107,7.3821 1.44153,1.88915 5.01964,5.570083 8.48541,6.420973 0,0 0.15505,-0.16866 0.23964,0.17401 4.54027,1.32664 17.95516,-0.0601 17.95516,-0.0601 0,0 3.78616,-0.54835 6.67226,-2.433813 2.23303,-1.45882 6.71558,-8.19366 6.50221,-9.47322 1.3301,-3.69718 0.7778,-7.29797 -0.51482,-10.86086 l -5.31469,-6.555773 -7.29835,-4.977601 c 0,0 -1.70758,-0.490869 -7.13373,-4.577461 l -5.4261,-4.086588 c 0,0 -2.4553,-2.427353 -2.8072,-4.74336 0.18459,-1.662436 0.12861,-6.18472 6.18087,-5.693494 6.05221,0.491222 9.23062,8.955 9.23062,8.955 0,0 2.6727,4.166121 6.16828,-4.224075 z"
       id="path702-7"
       sodipodi:nodetypes="ccscsccscccccsccsccccccsccccsccsccc" /><path
       style="fill:none;stroke:#000000;stroke-width:1.22241px;stroke-linecap:butt;stroke-linejoin:miter;stroke-opacity:1"
       d="m 161.58148,87.986751 4.27399,-5.10435 3.88545,5.14506 -3.99972,4.92685 z"
       id="path704-5"
       sodipodi:nodetypes="ccccc" /><path
       style="fill:none;stroke:#000000;stroke-width:1.22241px;stroke-linecap:butt;stroke-linejoin:miter;stroke-opacity:1"
       d="m 172.4229,87.743491 4.27399,-5.10435 3.88545,5.14506 -3.99973,4.92685 z"
       id="path704-6-3"
       sodipodi:nodetypes="ccccc" /><path
       style="fill:none;stroke:#000000;stroke-width:1.17107px;stroke-linecap:butt;stroke-linejoin:miter;stroke-opacity:1"
       d="m 122.78729,77.682695 c 9.80149,0.05593 13.027,0.262721 13.02446,-0.268104 -0.0149,-3.11046 -0.23226,-13.035888 -0.24675,-13.58861 l -0.081,-3.088563 c 0,0 0.0845,-11.147332 0.0722,-17.931559 0,0 0.65826,-16.661635 -1.27565,-20.432547 -1.93369,-3.770915 -7.65401,-4.073749 -7.65401,-4.073749 0,0 1.05827,2.584378 0.14132,6.506091 -0.91707,3.921707 -9.81048,8.81302 -9.81048,8.81302 0,0 -5.16588,3.91087 -7.01763,7.318932 -1.03162,3.424559 -1.54924,4.892492 -1.02708,8.665491 0.29533,2.13396 1.14577,4.123256 2.14549,6.145431 0.76787,1.55318 1.68703,2.424305 2.33179,3.031817 2.12162,1.999025 5.71502,2.523191 5.71502,2.523191 1.04727,-0.07577 2.17567,0.193784 2.98507,-0.894448 1.00079,-1.482779 0.88093,-2.620915 1.12672,-3.8715 0,0 -3.6164,-1.613641 -6.13323,-4.13571 -2.90105,-2.907096 -1.61693,-8.126157 0.8148,-10.254523 4.54115,-4.05644 6.48274,-5.207575 9.7622,-7.258621 0,0 -0.36578,34.743651 -0.71157,34.911133 -0.34609,0.1675 0.33847,0.09031 -0.34609,0.1675 l -6.39829,0.183902 0.11753,7.64952 z"
       id="path728"
       sodipodi:nodetypes="csscccccccssscccsccccccc" /><path
       style="opacity:0.71;fill:url(#linearGradient1156);fill-opacity:1;stroke:url(#linearGradient8622);stroke-width:28.6571;stroke-dashoffset:10.16;stroke-opacity:1"
       d="M 80.560826,314.96476 C 67.870925,312.12463 51.298458,303.9069 45.905761,297.78047 32.3027,282.32658 26.763585,264.25482 26.677863,235.04806 c -0.03628,-12.36193 0.221666,-14.59979 2.567285,-22.2727 8.476462,-27.72796 26.407853,-62.79241 51.085006,-99.89565 L 88.77712,100.1793 77.797609,89.171111 C 66.370083,77.713736 65.280074,75.727836 67.817063,70.987431 c 0.82649,-1.544312 1.603763,-1.757964 4.501928,-1.23746 5.943123,1.067371 11.595183,3.180878 23.066752,8.625481 l 11.033817,5.236839 16.71791,-2.985202 c 9.19485,-1.641862 17.13121,-2.72977 17.63636,-2.417573 1.62424,1.003839 1.01815,7.655569 -0.92234,10.122513 -1.01244,1.287102 -4.56208,3.67987 -7.8881,5.317262 -11.15754,5.492841 -11.37566,4.001083 3.65695,25.010709 35.75771,49.97509 46.77733,70.35812 52.41629,96.95458 4.46967,21.08151 0.60436,48.24678 -9.46062,66.48897 -8.21065,14.8813 -31.04333,30.8194 -46.76532,32.64401 -6.90009,0.80079 -47.866607,0.9744 -51.249864,0.2172 z m 47.388724,-28.61848 c 10.44999,-2.74804 12.81405,-4.09744 21.37404,-12.20017 7.39648,-7.0014 8.22798,-8.16848 10.39278,-14.58725 2.22664,-6.60216 2.34238,-7.98487 2.15428,-25.73817 -0.17756,-16.75852 -0.45859,-19.73737 -2.63274,-27.9059 -5.2092,-19.57169 -13.33282,-35.27947 -35.84461,-69.309 l -15.27766,-23.0942 -3.15868,3.66482 c -5.246079,6.0867 -16.806698,23.89289 -22.393926,34.49214 -10.422242,19.7715 -18.995509,43.28677 -23.931661,65.64118 -3.474433,15.73471 -3.699604,32.64707 -0.5401,40.56629 2.802827,7.02521 6.126061,11.26456 12.991809,16.57326 11.545505,8.92714 19.285745,11.68402 35.541538,12.65898 6.51595,0.39081 12.48693,0.77179 13.26884,0.84661 0.78192,0.0749 4.40716,-0.64902 8.05609,-1.60859 z"
       id="path974"
       transform="matrix(0.26458333,0,0,0.26458333,-55.291456,0)" /><path
       style="opacity:0.71;fill:#ffd42a;stroke:url(#linearGradient8630);stroke-width:28.6571;stroke-dashoffset:10.16"
       d="m 281.96289,318.01088 c -28.35621,-6.1947 -42.46327,-13.80909 -49.48469,-26.70975 -1.38926,-2.55253 -3.69882,-8.47011 -5.13234,-13.15014 -2.37854,-7.76524 -2.61151,-9.87636 -2.66473,-24.14744 -0.0539,-14.47032 0.12386,-16.15147 2.38084,-22.50965 1.34153,-3.77925 2.19447,-6.8769 1.89541,-6.88365 -2.28337,-0.0517 -24.10462,-3.80328 -24.51636,-4.21502 -0.55544,-0.55545 1.12158,-19.21285 1.78477,-19.85617 0.21397,-0.20755 8.06601,0.39607 17.44897,1.34139 13.35825,1.34583 17.26559,1.46829 18.00772,0.56434 0.52127,-0.63494 19.07396,-22.58703 41.22819,-48.78242 l 40.28041,-47.62799 3.7911,-18.827107 c 2.0851,-10.354908 4.09309,-19.125151 4.46219,-19.489427 1.05612,-1.042303 6.3457,2.739885 12.69909,9.080187 5.13567,5.12508 6.0817,6.664314 7.93694,12.913696 2.063,6.949263 2.09514,7.83871 1.56357,43.280541 -0.29849,19.902 -0.55516,61.18774 -0.57036,91.74608 l -0.0276,55.56061 -3.59019,0.57409 c -7.05319,1.12786 -13.94183,-2.43188 -18.27553,-9.44394 -1.76972,-2.86347 -2.31823,-6.30535 -3.80739,-23.89128 -0.95689,-11.30022 -1.75612,-21.71873 -1.77607,-23.15223 l -0.0363,-2.60638 H 288.69277 251.825 l -0.75598,12.08412 c -1.44364,23.0762 -1.1323,30.17562 1.71456,39.09569 2.3813,7.46139 3.11593,8.6203 9.95163,15.69921 5.12687,5.30928 9.02234,8.40609 12.75733,10.14179 5.24912,2.43933 20.46021,7.60087 25.6628,8.70808 2.99937,0.63833 3.16069,1.43342 1.15039,5.66982 -1.3019,2.74354 -7.45388,7.29909 -9.57246,7.0884 -0.4503,-0.0448 -5.29696,-1.05973 -10.77036,-2.25545 z m 46.5741,-118.97825 c 4.99122,-6.75092 3.83217,-46.0343 -1.68284,-57.03624 -1.51261,-3.01753 -4.29182,-4.11237 -6.89821,-2.71747 -1.97772,1.05844 -49.01194,57.72734 -49.95719,60.19062 -0.47301,1.23264 2.2734,1.46069 20.63671,1.71349 36.91766,0.50828 35.89289,0.56641 37.90153,-2.1504 z"
       id="path976"
       transform="matrix(0.26458333,0,0,0.26458333,-55.291456,0)" /><path
       style="opacity:0.71;fill:#ffd42a;stroke:url(#linearGradient8646);stroke-width:28.6571;stroke-dashoffset:10.16;stroke-opacity:1"
       d="m 471.04389,304.58282 c -11.80808,-1.31963 -22.9144,-7.56816 -34.59981,-19.46623 -9.29354,-9.46268 -11.7394,-13.39475 -14.11878,-22.69804 -4.68659,-18.32439 -4.34728,-37.01086 0.8681,-47.80784 8.55302,-17.70663 26.68402,-25.28928 32.69151,-13.67207 3.08006,5.95618 1.50087,10.93253 -7.06466,22.26224 -6.39802,8.46272 -6.56397,9.27301 -4.75549,23.22047 1.80135,13.89258 4.99313,19.36379 14.99777,25.70854 6.42104,4.07211 18.14903,8.29959 26.08842,9.40385 12.48499,1.7365 38.89129,-2.30957 46.07661,-7.06004 4.9117,-3.24729 15.25576,-22.83676 16.64444,-31.52104 0.79579,-4.97662 -1.74312,-14.84547 -5.07287,-19.71844 -5.52804,-8.0901 -26.1564,-27.65683 -38.11701,-36.15532 -6.52021,-4.63288 -20.0479,-14.77269 -30.06153,-22.5329 -16.27168,-12.61 -18.60756,-14.77558 -21.97949,-20.37715 -4.7943,-7.96447 -9.55032,-18.14989 -10.55497,-22.60437 -1.09852,-4.8707 0.43696,-11.90416 4.33326,-19.84892 5.58867,-11.395602 19.50155,-22.508127 33.05045,-26.398128 4.44268,-1.275527 8.1198,-1.508051 18.00772,-1.138723 13.6523,0.509934 21.04616,2.558373 30.02013,8.316956 10.62845,6.820256 19.3169,19.829765 21.70853,32.504925 1.09259,5.79047 1.03457,6.26361 -1.34328,10.95608 -3.69578,7.29327 -8.79624,12.58067 -11.79718,12.22957 -2.00551,-0.23464 -3.29768,-1.87772 -7.30515,-9.28892 -6.45121,-11.93055 -14.56535,-20.73325 -22.88834,-24.83064 -5.53322,-2.724 -7.24163,-3.10551 -13.95499,-3.11635 -10.64467,-0.0172 -16.00107,2.70313 -19.67893,9.99421 -1.43098,2.8368 -2.87694,7.60991 -3.21326,10.6069 -0.54752,4.87918 -0.30068,6.06867 2.36017,11.37329 1.6344,3.25833 4.27207,7.33944 5.86148,9.06916 4.17337,4.54176 33.74455,26.53123 42.88524,31.88994 4.2781,2.50804 13.86833,8.63597 21.31161,13.61763 12.85584,8.60419 14.0127,9.64624 23.11194,20.81819 10.38749,12.75365 12.31677,16.59038 14.02467,27.89061 2.14508,14.1927 -1.05554,25.76176 -11.34662,41.01376 -12.14992,18.00691 -22.36017,23.86056 -45.45753,26.06129 -11.26286,1.07314 -45.01544,1.93638 -50.73216,1.29751 z"
       id="path978"
       transform="matrix(0.26458333,0,0,0.26458333,-55.291456,0)" /><path
       style="opacity:0.71;fill:#ffd42a;stroke:url(#linearGradient8654);stroke-width:28.6571;stroke-dashoffset:10.16"
       d="m 666.41425,286.56948 c -0.3315,-2.4185 -0.60272,-7.74973 -0.60272,-11.84718 v -7.44991 l 11.61024,-0.0145 c 6.38563,-0.008 12.09207,-0.32786 12.68097,-0.71083 0.58891,-0.38299 1.33592,-3.25532 1.66003,-6.38298 0.66405,-6.40817 2.82301,-132.18944 2.27829,-132.73416 -0.54043,-0.54043 -20.36533,12.47166 -27.28175,17.90641 -16.21331,12.74001 -21.67447,19.81066 -23.62985,30.59393 -2.67794,14.76798 3.73422,25.05758 22.42789,35.99005 6.77365,3.96138 7.16258,5.16147 3.80834,11.7512 -1.54583,3.03694 -2.91472,4.39722 -4.97582,4.94454 -6.54949,1.73921 -20.078,-3.56841 -26.88915,-10.54936 -4.76327,-4.88202 -10.60952,-16.43215 -13.05047,-25.78312 -3.3562,-12.85722 -1.11433,-30.79447 5.01009,-40.08596 4.94919,-7.50852 17.92031,-19.04721 31.77677,-28.26762 15.80625,-10.51783 24.69359,-18.82603 28.14318,-26.309224 2.08008,-4.512308 2.40916,-6.565492 2.44901,-15.27979 l 0.046,-10.067031 4.73887,1.403091 c 8.49085,2.513981 14.49774,6.667916 17.20062,11.894709 4.16177,8.047977 4.42547,13.309367 4.66533,93.083735 0.12539,41.70207 0.48924,84.03205 0.80854,94.06661 l 0.58055,18.24466 H 693.4431 667.01696 Z"
       id="path980"
       transform="matrix(0.26458333,0,0,0.26458333,-55.291456,0)" /><path
       style="opacity:0.71;fill:#ffd42a;stroke:url(#linearGradient8662);stroke-width:28.6571;stroke-dashoffset:10.16"
       d="m 824.56375,297.6661 c -6.64799,-1.10851 -12.24751,-3.48177 -19.64189,-8.32491 -8.37657,-5.48644 -20.07741,-18.09914 -23.55067,-25.38601 -3.71988,-7.80429 -5.99772,-21.20374 -5.96134,-35.06766 0.0356,-13.55799 1.74804,-19.0518 8.81029,-28.26483 5.22421,-6.81523 11.55383,-11.10022 17.36419,-11.75513 3.46219,-0.39024 4.58787,-0.0623 7.13071,2.07736 1.66074,1.39742 3.50484,4.16063 4.09802,6.14048 1.52082,5.07604 -0.0305,9.08603 -7.32281,18.92847 -5.95147,8.03271 -6.0271,8.21208 -6.02765,14.29532 -10e-4,14.99031 3.63681,25.86219 10.55023,31.52723 8.23574,6.74856 22.36942,12.44103 33.50641,13.49501 7.90621,0.74822 27.95103,-1.53743 36.31653,-4.14107 8.79065,-2.73596 10.80458,-4.67935 16.59393,-16.0128 6.93801,-13.58209 8.52971,-19.19068 7.29458,-25.7035 -1.52962,-8.06564 -4.0161,-12.33176 -13.0472,-22.38535 -10.23374,-11.39239 -16.32328,-16.76361 -30.0979,-26.54746 -20.87577,-14.82768 -47.86876,-36.52887 -50.47716,-40.58145 -4.8057,-7.46645 -11.51178,-21.66047 -12.09529,-25.60076 -1.22391,-8.26486 3.38628,-20.163307 11.06998,-28.570496 6.00692,-6.572525 16.69468,-13.760476 24.03766,-16.166293 7.9592,-2.607714 27.82006,-2.641671 35.99478,-0.06154 19.51926,6.160733 32.122,19.451425 35.97198,37.935599 1.34745,6.46927 1.33227,6.62725 -1.11805,11.63144 -3.37721,6.89716 -8.40125,12.6129 -11.08654,12.6129 -2.68788,0 -4.15797,-1.71838 -8.10835,-9.47775 -10.40641,-20.44033 -26.19141,-30.615161 -42.64847,-27.490731 -10.42524,1.979267 -15.64774,8.247611 -16.75556,20.110941 -0.50353,5.39219 -0.27255,6.73807 1.898,11.05955 1.35922,2.70614 3.65386,6.47705 5.09921,8.37982 3.05076,4.01624 34.46177,27.78381 43.0295,32.55884 3.20154,1.7843 12.56072,7.74398 20.79817,13.24371 14.68378,9.80362 15.17221,10.24032 24.9308,22.28961 9.21567,11.37893 10.10592,12.84528 12.00816,19.77903 2.56546,9.35114 2.24731,23.49182 -0.72006,32.00472 -3.6993,10.6127 -16.92767,28.9933 -24.18903,33.61024 -6.23416,3.96383 -18.43281,7.77886 -28.28702,8.84655 -12.07162,1.30793 -49.48964,1.99112 -55.36814,1.01092 z"
       id="path982"
       transform="matrix(0.26458333,0,0,0.26458333,-55.291456,0)" /><path
       style="opacity:0.71;fill:#d38d5f;fill-opacity:0;stroke:url(#radialGradient8708);stroke-width:28.6571;stroke-dashoffset:10.16;stroke-opacity:1"
       d="m 511.81731,349.58419 c -4.54213,-5.39388 -8.46332,-10.30696 -8.71377,-10.91795 -0.73919,-1.80335 14.99722,-20.06395 17.36003,-20.14466 1.49184,-0.051 3.94481,2.42743 9.2408,9.33659 3.96541,5.17327 7.20984,9.82513 7.20984,10.33745 0,0.80909 -12.19759,16.37411 -15.60924,19.91854 -1.01984,1.05952 -2.63613,-0.39362 -9.48766,-8.52997 z m 15.12102,-3.68699 6.30638,-7.62267 -5.98439,-7.96863 c -3.29141,-4.38275 -6.26746,-7.98978 -6.61343,-8.01562 -1.47792,-0.11037 -13.27448,15.22688 -12.7543,16.58245 0.67359,1.75535 11.24281,14.47078 12.11358,14.57339 0.34418,0.0405 3.46365,-3.35646 6.93216,-7.54892 z"
       id="path6557"
       transform="matrix(0.26458333,0,0,0.26458333,-55.291456,0)" /><path
       style="opacity:0.71;fill:#d38d5f;fill-opacity:0;stroke:url(#linearGradient8762);stroke-width:28.6571;stroke-dashoffset:10.16;stroke-opacity:1"
       d="m 473.07771,345.94421 c -3.64193,-4.42696 -5.19965,-7.04824 -4.69096,-7.89378 0.41888,-0.69626 3.08469,-4.06385 5.92404,-7.48356 l 5.16244,-6.21763 4.55224,6.01337 c 5.81212,7.67762 5.8364,9.6779 0.20343,16.75977 -2.3841,2.99734 -4.64161,5.44971 -5.01669,5.44971 -0.37508,0 -3.1356,-2.98255 -6.1345,-6.62788 z"
       id="path6559"
       transform="matrix(0.26458333,0,0,0.26458333,-55.291456,0)" /><path
       style="opacity:0.71;fill:#d38d5f;fill-opacity:0;stroke:url(#linearGradient8736);stroke-width:28.6571;stroke-dashoffset:10.16;stroke-opacity:1"
       d="m 312.05473,36.033792 c -2.99734,-3.613827 -5.4497,-6.83805 -5.4497,-7.16494 0,-0.901358 11.60291,-14.738542 12.01401,-14.327444 0.19697,0.196977 2.67776,3.458625 5.51286,7.248106 4.37558,5.848545 4.98056,7.135968 4.0025,8.517492 -2.53465,3.580215 -9.71143,12.254522 -10.15608,12.275269 -0.26064,0.01216 -2.92625,-2.934657 -5.92359,-6.548483 z"
       id="path6561"
       transform="matrix(0.26458333,0,0,0.26458333,-55.291456,0)" /><path
       style="opacity:0.71;fill:#d38d5f;fill-opacity:0;stroke:url(#radialGradient8760);stroke-width:28.6571;stroke-dashoffset:10.16;stroke-opacity:1"
       d="m 353.51986,35.814248 c -2.60638,-3.179087 -5.08818,-6.368332 -5.51512,-7.087211 -0.68791,-1.158314 2.27315,-5.28556 10.27652,-14.323835 0.86633,-0.978348 2.21745,0.258017 6.50004,5.947947 3.26046,4.331916 5.12903,7.643597 4.70765,8.343384 -1.49421,2.481393 -10.17802,13.004623 -10.68946,12.953706 -0.29742,-0.02961 -2.67325,-2.654906 -5.27963,-5.833991 z"
       id="path6563"
       transform="matrix(0.26458333,0,0,0.26458333,-55.291456,0)" /><path
       style="opacity:0.71;fill:#d38d5f;fill-opacity:0;stroke:#9f4513;stroke-width:28.6571;stroke-dashoffset:10.16;stroke-opacity:1"
       d=""
       id="path6565"
       transform="matrix(0.26458333,0,0,0.26458333,-55.291456,0)" /><path
       style="opacity:0.71;fill:#d38d5f;fill-opacity:0;stroke:url(#linearGradient8764);stroke-width:28.6571;stroke-dashoffset:10.16;stroke-opacity:1"
       d="m 829.74472,340.03192 c -2.7141,-3.24816 -5.13424,-6.42567 -5.37809,-7.06113 -0.40721,-1.06118 9.85634,-14.27629 11.21863,-14.44484 0.3278,-0.0406 3.01079,3.13459 5.96219,7.05589 l 5.3662,7.12963 -5.44039,6.6131 c -2.99221,3.6372 -5.74491,6.61309 -6.1171,6.61309 -0.3722,0 -2.89735,-2.65758 -5.61144,-5.90574 z"
       id="path6567"
       transform="matrix(0.26458333,0,0,0.26458333,-55.291456,0)" /><path
       style="opacity:0.71;fill:#d38d5f;fill-opacity:0;stroke:url(#radialGradient8700);stroke-width:28.6571;stroke-dashoffset:10.16;stroke-opacity:1"
       d="m 869.42631,344.84599 c -5.47268,-6.67173 -7.10398,-10.28162 -4.64623,-10.28162 0.37448,0 2.93012,2.77224 5.6792,6.16054 2.74907,3.38829 5.35514,6.16053 5.79125,6.16053 1.08774,0 12.28799,-13.80512 12.28799,-15.14584 0,-0.59303 -2.5951,-4.4873 -5.76688,-8.65393 -6.57488,-8.63711 -5.74653,-8.68138 -13.36992,0.7146 -4.54221,5.59837 -6.92699,7.06541 -6.92699,4.26124 0,-2.2515 12.26783,-16.2284 14.25083,-16.23617 2.59389,-0.0102 17.17683,19.37549 15.86979,21.09631 -4.58416,6.03541 -15.89289,19.64778 -16.3147,19.63806 -0.29539,-0.007 -3.37985,-3.47798 -6.85434,-7.71372 z"
       id="path6569"
       transform="matrix(0.26458333,0,0,0.26458333,-55.291456,0)" /><text
       xml:space="preserve"
       style="font-size:18.7226px;line-height:0.85;font-family:sans-serif;fill:#aa4400;stroke-width:0.468802;stroke-dasharray:none"
       x="4.5722971"
       y="94.040398"
       id="text9546"
       transform="scale(0.75057107,1.3323189)"><tspan
         sodipodi:role="line"
         id="tspan9544"
         style="fill:#aa4400;stroke-width:0.468802;stroke-dasharray:none"
         x="4.5722971"
         y="94.040398">RESTAURANT ARABE</tspan></text></g></svg>
